<svg width="37" height="36" viewBox="0 0 37 36" fill="none" xmlns="http://www.w3.org/2000/svg">
<path d="M24.666 12C27.1193 12 29.472 12.9482 31.2068 14.636C32.9415 16.3239 33.916 18.6131 33.916 21V31.5H27.7493V21C27.7493 20.2044 27.4245 19.4413 26.8463 18.8787C26.268 18.3161 25.4838 18 24.666 18C23.8483 18 23.064 18.3161 22.4858 18.8787C21.9075 19.4413 21.5827 20.2044 21.5827 21V31.5H15.416V21C15.416 18.6131 16.3906 16.3239 18.1253 14.636C19.86 12.9482 22.2128 12 24.666 12V12Z" stroke="white" stroke-width="2" stroke-linecap="round" stroke-linejoin="round"/>
<path d="M9.25065 13.5H3.08398V31.5H9.25065V13.5Z" stroke="white" stroke-width="2" stroke-linecap="round" stroke-linejoin="round"/>
<path d="M6.16732 9C7.8702 9 9.25065 7.65685 9.25065 6C9.25065 4.34315 7.8702 3 6.16732 3C4.46444 3 3.08398 4.34315 3.08398 6C3.08398 7.65685 4.46444 9 6.16732 9Z" stroke="white" stroke-width="2" stroke-linecap="round" stroke-linejoin="round"/>
</svg>
